<?xml version="1.0" encoding="UTF-8"?>
<svg id="Layer_1" data-name="Layer 1" xmlns="http://www.w3.org/2000/svg" viewBox="0 0 1080 1080">
  <defs>
    <style>
      .cls-1 {
        fill: #fff;
      }
    </style>
  </defs>
  <path class="cls-1" d="m43.22,30.56c-2.38,2.17-1.73,1014.9.43,1016.2,1.08.65,92.15,1.73,202.29,2.38,168.68,1.08,200.99.65,202.94-1.73,1.95-2.17,2.82-45.96,3.04-158.92l.65-155.89,42.71,42.06,42.93,42.06,4.77-4.12c8.67-7.59,11.71-10.41,47.48-45.31l35.56-34.69.65,155.89c.22,110.79,1.08,156.76,2.82,158.92,3.69,4.12,403.49,4.34,407.17,0,3.25-4.12,3.47-1011.21,0-1015.55-1.95-2.38-33.61-2.82-176.27-2.82-95.4,0-177.57.65-182.34,1.52-7.59,1.3-15.39,8.24-74.15,66.56l-65.91,65.04-66.56-66.56-66.78-66.56h-179.95c-99.08,0-180.82.65-181.47,1.52Zm339.96,191.01q153.29,152.42,157.41,149.82c3.47-1.73,91.06-87.16,182.56-177.79l23.2-23.2,44.01-1.3c24.07-.65,55.94-.87,70.9-.65l27.1.43.65,68.3.43,68.3-51.82,51.82c-35.12,35.12-52.47,50.95-53.34,48.78-.43-1.52-1.3-26.23-1.52-54.64l-.65-51.38-77.4,76.1-77.62,76.1v80.87l-43.15,43.36c-23.63,23.63-44.01,43.58-45.1,43.8-1.08.43-21.03-18.65-44.66-42.28l-42.71-42.93v-81.96l-18-17.35c-9.76-9.76-44.23-43.58-76.53-75.67-32.31-31.87-59.41-57.89-60.27-57.89-.65,0-1.3,24.07-1.3,53.55v53.55l-48.13-47.48c-26.67-26.23-50.52-50.52-53.12-53.99-4.99-6.5-4.99-7.15-4.99-71.98,0-50.52.65-65.69,2.82-66.56,1.3-.43,33.39-.43,70.9,0l68.3.65,52.04,51.6Zm-138.98,310.91l51.38,50.52-.22,163.04v163.26h-103.42l-1.52-6.72c-2.17-11.06-1.52-420.4.65-420.4,1.08,0,25.15,22.77,53.12,50.3Zm645.23,163.26v213.56l-52.47-.43-52.69-.65-.65-158.27c-.22-87.16,0-160.66.65-163.48,1.3-4.77,99.73-104.07,103.64-104.29.87,0,1.52,96.05,1.52,213.56Z"/>
</svg>